<svg width="16" height="16" viewBox="0 0 16 16" fill="none" xmlns="http://www.w3.org/2000/svg">
<g clip-path="url(#clip0_1564_3651)">
<path fill-rule="evenodd" clip-rule="evenodd" d="M8.18575 1.08301L7.62775 1.08701L1.71875 5.12401L1.72275 5.95201L7.63075 9.91501L8.18075 9.91901L14.2727 5.95601L14.2757 5.12001L8.18575 1.08301ZM2.89275 5.53301L7.91375 2.10301L13.0897 5.53301L7.91375 8.90101L2.89275 5.53301ZM7.63175 12.415L1.79375 8.50001H3.58875L7.91375 11.4L12.3727 8.50001H14.2057L13.4057 9.02001C12.4968 8.92738 11.5835 9.14858 10.8176 9.64685C10.0517 10.1451 9.4794 10.8905 9.19575 11.759L8.18275 12.419L7.63175 12.415ZM9.00475 13.191L7.91475 13.901L3.58775 11H1.79375L7.63175 14.915L8.18175 14.919L9.20175 14.256C9.08796 13.9116 9.02168 13.5533 9.00475 13.191ZM11.3337 10.506C11.6609 10.2758 12.0308 10.1133 12.4217 10.0281C12.8126 9.94291 13.2165 9.93678 13.6098 10.01C14.0031 10.0833 14.3778 10.2345 14.7118 10.4547C15.0458 10.6749 15.3323 10.9597 15.5546 11.2923C15.7769 11.6249 15.9305 11.9986 16.0062 12.3915C16.0819 12.7843 16.0783 13.1883 15.9956 13.5797C15.9128 13.9711 15.7526 14.342 15.5244 14.6706C15.2962 14.9992 15.0046 15.2788 14.6667 15.493C14.0054 15.9123 13.2062 16.0564 12.44 15.8945C11.6738 15.7325 11.0013 15.2774 10.5662 14.6263C10.131 13.9752 9.96773 13.1798 10.1111 12.4099C10.2546 11.64 10.6933 10.9567 11.3337 10.506ZM13.0317 14.323L14.8217 11.936L14.0217 11.336L12.5417 13.31L11.6657 12.61L11.0417 13.39L12.3197 14.413L13.0317 14.323Z" fill="black"/>
</g>
<defs>
<clipPath id="clip0_1564_3651">
<rect width="16" height="16" fill="white"/>
</clipPath>
</defs>
</svg>
