<svg width="24" height="23" viewBox="0 0 24 23" fill="none" xmlns="http://www.w3.org/2000/svg">
<g clip-path="url(#clip0_1323_1296)">
<path d="M12.0813 10.9697C14.4842 10.9697 16.4321 9.0218 16.4321 6.6189C16.4321 4.216 14.4842 2.26807 12.0813 2.26807C9.6784 2.26807 7.73047 4.216 7.73047 6.6189C7.73047 9.0218 9.6784 10.9697 12.0813 10.9697Z" fill="#939393"/>
<path d="M8.25324 17.0264C8.26652 16.6729 8.3843 16.3313 8.5917 16.0448C8.7991 15.7582 9.0868 15.5396 9.41844 15.4165C9.75008 15.2934 10.1108 15.2714 10.4549 15.3533C10.799 15.4351 11.1112 15.6172 11.3519 15.8764L13.818 18.5278L18.188 13.6531C16.3828 12.4501 14.2557 11.822 12.0866 11.8514C10.5819 11.8134 9.08718 12.1054 7.70747 12.707C6.32776 13.3085 5.09657 14.205 4.10047 15.3334C4.0162 15.4457 3.97129 15.5827 3.97269 15.7231V19.1667C3.97254 19.4991 4.10189 19.8184 4.33329 20.057C4.56469 20.2955 4.87993 20.4345 5.21213 20.4445H10.6874L8.72602 18.3362C8.56397 18.1603 8.43867 17.9539 8.35748 17.729C8.27629 17.5041 8.24086 17.2652 8.25324 17.0264Z" fill="#939393"/>
<path d="M18.9599 20.4444C19.2921 20.4344 19.6074 20.2954 19.8388 20.0569C20.0702 19.8183 20.1995 19.499 20.1994 19.1666V16.7644L16.9219 20.4444H18.9599Z" fill="#939393"/>
<path d="M22.1611 11.8961C22.0984 11.8395 22.0251 11.7958 21.9454 11.7677C21.8657 11.7396 21.7812 11.7275 21.6968 11.7323C21.6125 11.737 21.5299 11.7585 21.4538 11.7954C21.3778 11.8323 21.3098 11.8839 21.2539 11.9472L13.83 20.2528L10.5078 16.6814C10.4533 16.6176 10.3867 16.5652 10.3119 16.5272C10.2371 16.4891 10.1556 16.4662 10.0719 16.4597C9.98827 16.4532 9.90415 16.4632 9.82437 16.4892C9.74459 16.5151 9.67071 16.5566 9.60695 16.6111C9.54707 16.6705 9.49954 16.7412 9.4671 16.819C9.43467 16.8969 9.41797 16.9804 9.41797 17.0647C9.41797 17.1491 9.43467 17.2326 9.4671 17.3104C9.49954 17.3883 9.54707 17.459 9.60695 17.5183L13.8747 22.1183L22.2058 12.7778C22.3133 12.6533 22.3686 12.4922 22.3602 12.328C22.3519 12.1638 22.2806 12.0091 22.1611 11.8961Z" fill="#939393"/>
</g>
<defs>
<clipPath id="clip0_1323_1296">
<rect width="23" height="23" fill="white" transform="translate(0.585938)"/>
</clipPath>
</defs>
</svg>
