<svg width="25" height="24" viewBox="0 0 25 24" fill="none" xmlns="http://www.w3.org/2000/svg">
<path d="M10.5859 4C12.7859 4 14.5859 5.8 14.5859 8C14.5859 10.2 12.7859 12 10.5859 12C8.38594 12 6.58594 10.2 6.58594 8C6.58594 5.8 8.38594 4 10.5859 4ZM17.5859 21L19.3859 22.77C19.8859 23.27 20.5859 22.87 20.5859 22.28V18L23.3859 14.6C23.4974 14.4514 23.5652 14.2748 23.5819 14.0898C23.5986 13.9048 23.5634 13.7189 23.4804 13.5528C23.3973 13.3867 23.2696 13.247 23.1117 13.1493C22.9537 13.0517 22.7717 13 22.5859 13H15.5859C14.7859 13 14.2859 14 14.7859 14.6L17.5859 18V21ZM15.5859 18.7L13.2859 15.9C12.8859 15.4 12.6859 14.8 12.6859 14.2C11.9859 14 11.2859 14 10.5859 14C6.18594 14 2.58594 15.8 2.58594 18V20H15.5859V18.7Z" fill="#939393"/>
</svg>
