<svg width="221" height="24" viewBox="0 0 221 24" fill="none" xmlns="http://www.w3.org/2000/svg">
<path d="M2.50391 8.62502C2.50391 6.8176 2.50391 5.91485 3.06549 5.35327C3.62707 4.79169 4.52982 4.79169 6.33724 4.79169H17.8372C19.6447 4.79169 20.5474 4.79169 21.109 5.35327C21.6706 5.91485 21.6706 6.8176 21.6706 8.62502C21.6706 9.0764 21.6706 9.30256 21.5307 9.44344C21.3898 9.58335 21.1627 9.58335 20.7122 9.58335H3.46224C3.01086 9.58335 2.7847 9.58335 2.64382 9.44344C2.50391 9.30256 2.50391 9.07544 2.50391 8.62502ZM2.50391 17.25C2.50391 19.0574 2.50391 19.9602 3.06549 20.5218C3.62707 21.0834 4.52982 21.0834 6.33724 21.0834H17.8372C19.6447 21.0834 20.5474 21.0834 21.109 20.5218C21.6706 19.9602 21.6706 19.0574 21.6706 17.25V12.4584C21.6706 12.007 21.6706 11.7808 21.5307 11.6399C21.3898 11.5 21.1627 11.5 20.7122 11.5H3.46224C3.01086 11.5 2.7847 11.5 2.64382 11.6399C2.50391 11.7808 2.50391 12.0079 2.50391 12.4584V17.25Z" fill="#939393"/>
<path d="M7.29688 2.875V5.75M16.8802 2.875V5.75" stroke="#939393" stroke-width="2" stroke-linecap="round"/>
<path d="M37.5376 4.45455H39.7393V14.0213C39.7393 15.0393 39.5002 15.9413 39.022 16.7273C38.5438 17.5085 37.8714 18.1241 37.005 18.5739C36.1385 19.0189 35.1229 19.2415 33.9581 19.2415C32.7981 19.2415 31.7848 19.0189 30.9183 18.5739C30.0518 18.1241 29.3795 17.5085 28.9013 16.7273C28.4231 15.9413 28.1839 15.0393 28.1839 14.0213V4.45455H30.3786V13.8438C30.3786 14.5019 30.523 15.0866 30.8118 15.598C31.1054 16.1094 31.5196 16.5118 32.0547 16.8054C32.5897 17.0942 33.2242 17.2386 33.9581 17.2386C34.6967 17.2386 35.3336 17.0942 35.8686 16.8054C36.4084 16.5118 36.8203 16.1094 37.1044 15.598C37.3932 15.0866 37.5376 14.5019 37.5376 13.8438V4.45455ZM42.7596 23.0909V8.09091H44.8335V9.85938H45.011C45.1341 9.6321 45.3117 9.36932 45.5437 9.07102C45.7757 8.77273 46.0977 8.51231 46.5096 8.28977C46.9215 8.0625 47.466 7.94886 48.1431 7.94886C49.0238 7.94886 49.8098 8.1714 50.5011 8.61648C51.1924 9.06155 51.7345 9.70312 52.1275 10.5412C52.5252 11.3793 52.7241 12.3878 52.7241 13.5668C52.7241 14.7457 52.5276 15.7566 52.1346 16.5994C51.7416 17.4375 51.2018 18.0838 50.5153 18.5384C49.8287 18.9882 49.0451 19.2131 48.1644 19.2131C47.5015 19.2131 46.9594 19.1018 46.538 18.8793C46.1213 18.6567 45.7946 18.3963 45.5579 18.098C45.3211 17.7997 45.1388 17.5346 45.011 17.3026H44.8832V23.0909H42.7596ZM44.8406 13.5455C44.8406 14.3125 44.9518 14.9848 45.1744 15.5625C45.3969 16.1402 45.7189 16.5923 46.1403 16.919C46.5617 17.241 47.0778 17.402 47.6886 17.402C48.323 17.402 48.8533 17.2339 49.2795 16.8977C49.7056 16.5568 50.0276 16.0952 50.2454 15.5128C50.4679 14.9304 50.5792 14.2746 50.5792 13.5455C50.5792 12.8258 50.4703 12.1795 50.2525 11.6065C50.0394 11.0336 49.7174 10.5814 49.2866 10.25C48.8604 9.91856 48.3278 9.75284 47.6886 9.75284C47.073 9.75284 46.5522 9.91146 46.1261 10.2287C45.7047 10.5459 45.3851 10.9886 45.1673 11.5568C44.9495 12.125 44.8406 12.7879 44.8406 13.5455ZM59.6985 19.2202C58.6426 19.2202 57.7335 18.9811 56.9712 18.5028C56.2137 18.0199 55.6313 17.3546 55.2241 16.5071C54.8169 15.6596 54.6133 14.6889 54.6133 13.5952C54.6133 12.4872 54.8216 11.5095 55.2383 10.6619C55.6549 9.80966 56.2421 9.14441 56.9996 8.66619C57.7572 8.18797 58.6497 7.94886 59.6772 7.94886C60.5058 7.94886 61.2444 8.10275 61.8931 8.41051C62.5418 8.71354 63.065 9.13968 63.4627 9.68892C63.8652 10.2382 64.1043 10.8797 64.18 11.6136H62.1133C61.9996 11.1023 61.7392 10.6619 61.332 10.2926C60.9296 9.9233 60.3898 9.73864 59.7127 9.73864C59.1209 9.73864 58.6024 9.89489 58.1573 10.2074C57.717 10.5152 57.3737 10.9555 57.1275 11.5284C56.8813 12.0966 56.7582 12.7689 56.7582 13.5455C56.7582 14.3409 56.8789 15.0275 57.1204 15.6051C57.3619 16.1828 57.7028 16.6302 58.1431 16.9474C58.5882 17.2647 59.1114 17.4233 59.7127 17.4233C60.1152 17.4233 60.4798 17.3499 60.8065 17.2031C61.1379 17.0516 61.4149 16.8362 61.6374 16.5568C61.8647 16.2775 62.0233 15.9413 62.1133 15.5483H64.18C64.1043 16.2538 63.8746 16.8835 63.4911 17.4375C63.1076 17.9915 62.5939 18.4271 61.9499 18.7443C61.3107 19.0616 60.5603 19.2202 59.6985 19.2202ZM71.0462 19.2202C70.0234 19.2202 69.1309 18.9858 68.3686 18.517C67.6063 18.0483 67.0144 17.3925 66.593 16.5497C66.1716 15.7069 65.9609 14.7221 65.9609 13.5952C65.9609 12.4635 66.1716 11.474 66.593 10.6264C67.0144 9.77888 67.6063 9.12074 68.3686 8.65199C69.1309 8.18324 70.0234 7.94886 71.0462 7.94886C72.0689 7.94886 72.9614 8.18324 73.7237 8.65199C74.486 9.12074 75.0779 9.77888 75.4993 10.6264C75.9207 11.474 76.1314 12.4635 76.1314 13.5952C76.1314 14.7221 75.9207 15.7069 75.4993 16.5497C75.0779 17.3925 74.486 18.0483 73.7237 18.517C72.9614 18.9858 72.0689 19.2202 71.0462 19.2202ZM71.0533 17.4375C71.7161 17.4375 72.2654 17.2623 72.701 16.9119C73.1366 16.5616 73.4586 16.0952 73.6669 15.5128C73.88 14.9304 73.9865 14.2888 73.9865 13.5881C73.9865 12.892 73.88 12.2528 73.6669 11.6705C73.4586 11.0833 73.1366 10.6122 72.701 10.2571C72.2654 9.90199 71.7161 9.72443 71.0533 9.72443C70.3857 9.72443 69.8317 9.90199 69.3913 10.2571C68.9557 10.6122 68.6314 11.0833 68.4183 11.6705C68.21 12.2528 68.1058 12.892 68.1058 13.5881C68.1058 14.2888 68.21 14.9304 68.4183 15.5128C68.6314 16.0952 68.9557 16.5616 69.3913 16.9119C69.8317 17.2623 70.3857 17.4375 71.0533 17.4375ZM78.5018 19V8.09091H80.5401V9.86648H80.6751C80.9023 9.26515 81.274 8.7964 81.7901 8.46023C82.3062 8.11932 82.9241 7.94886 83.6438 7.94886C84.373 7.94886 84.9838 8.11932 85.4762 8.46023C85.9734 8.80114 86.3403 9.26989 86.5771 9.86648H86.6907C86.9511 9.28409 87.3654 8.82008 87.9336 8.47443C88.5018 8.12405 89.1789 7.94886 89.9648 7.94886C90.9544 7.94886 91.7617 8.259 92.3867 8.87926C93.0165 9.49953 93.3313 10.4347 93.3313 11.6847V19H91.2077V11.8835C91.2077 11.1449 91.0065 10.6098 90.604 10.2784C90.2016 9.94697 89.721 9.78125 89.1623 9.78125C88.471 9.78125 87.9336 9.99432 87.5501 10.4205C87.1665 10.8419 86.9748 11.384 86.9748 12.0469V19H84.8583V11.7486C84.8583 11.1567 84.6737 10.6809 84.3043 10.321C83.935 9.96117 83.4544 9.78125 82.8626 9.78125C82.4601 9.78125 82.0884 9.88778 81.7475 10.1009C81.4113 10.3092 81.1391 10.6004 80.9308 10.9744C80.7272 11.3485 80.6254 11.7817 80.6254 12.2741V19H78.5018ZM96.1776 19V8.09091H98.3011V19H96.1776ZM97.25 6.40767C96.8807 6.40767 96.5634 6.28456 96.2983 6.03835C96.0379 5.7874 95.9077 5.48911 95.9077 5.14347C95.9077 4.79309 96.0379 4.49479 96.2983 4.24858C96.5634 3.99763 96.8807 3.87216 97.25 3.87216C97.6193 3.87216 97.9342 3.99763 98.1946 4.24858C98.4598 4.49479 98.5923 4.79309 98.5923 5.14347C98.5923 5.48911 98.4598 5.7874 98.1946 6.03835C97.9342 6.28456 97.6193 6.40767 97.25 6.40767ZM103.282 12.5227V19H101.158V8.09091H103.196V9.86648H103.331C103.582 9.28883 103.975 8.82481 104.51 8.47443C105.05 8.12405 105.73 7.94886 106.549 7.94886C107.292 7.94886 107.943 8.10511 108.502 8.41761C109.06 8.72538 109.494 9.18466 109.801 9.79545C110.109 10.4062 110.263 11.1615 110.263 12.0611V19H108.14V12.3168C108.14 11.526 107.934 10.9081 107.522 10.4631C107.11 10.0133 106.544 9.78835 105.824 9.78835C105.332 9.78835 104.894 9.89489 104.51 10.108C104.132 10.321 103.831 10.6335 103.608 11.0455C103.391 11.4527 103.282 11.9451 103.282 12.5227ZM117.685 23.3182C116.819 23.3182 116.073 23.2045 115.448 22.9773C114.828 22.75 114.321 22.4493 113.928 22.0753C113.535 21.7012 113.241 21.2917 113.047 20.8466L114.873 20.0938C115 20.3021 115.171 20.5223 115.384 20.7543C115.602 20.991 115.895 21.1922 116.265 21.358C116.639 21.5237 117.119 21.6065 117.706 21.6065C118.511 21.6065 119.176 21.41 119.702 21.017C120.228 20.6288 120.49 20.0085 120.49 19.1562V17.0114H120.355C120.228 17.2434 120.043 17.5014 119.801 17.7855C119.565 18.0696 119.238 18.3158 118.821 18.5241C118.405 18.7325 117.863 18.8366 117.195 18.8366C116.333 18.8366 115.557 18.6354 114.865 18.233C114.179 17.8258 113.634 17.2268 113.232 16.4361C112.834 15.6406 112.635 14.6629 112.635 13.5028C112.635 12.3428 112.832 11.3485 113.225 10.5199C113.623 9.69129 114.167 9.05682 114.858 8.61648C115.55 8.1714 116.333 7.94886 117.209 7.94886C117.886 7.94886 118.433 8.0625 118.85 8.28977C119.266 8.51231 119.591 8.77273 119.823 9.07102C120.06 9.36932 120.242 9.6321 120.37 9.85938H120.526V8.09091H122.607V19.2415C122.607 20.179 122.389 20.9484 121.953 21.5497C121.518 22.151 120.928 22.5961 120.185 22.8849C119.446 23.1738 118.613 23.3182 117.685 23.3182ZM117.664 17.0753C118.275 17.0753 118.791 16.9332 119.212 16.6491C119.638 16.3603 119.96 15.9484 120.178 15.4134C120.4 14.8736 120.512 14.2273 120.512 13.4744C120.512 12.7405 120.403 12.0942 120.185 11.5355C119.967 10.9768 119.648 10.5412 119.226 10.2287C118.805 9.91146 118.284 9.75284 117.664 9.75284C117.025 9.75284 116.492 9.91856 116.066 10.25C115.64 10.5767 115.318 11.0218 115.1 11.5852C114.887 12.1487 114.78 12.7784 114.78 13.4744C114.78 14.1894 114.889 14.8168 115.107 15.3565C115.325 15.8963 115.647 16.3177 116.073 16.6207C116.504 16.9238 117.034 17.0753 117.664 17.0753ZM130.918 19V4.45455H139.938V6.34375H133.113V10.7756H139.292V12.6577H133.113V19H130.918ZM146.261 19.2202C145.238 19.2202 144.346 18.9858 143.583 18.517C142.821 18.0483 142.229 17.3925 141.808 16.5497C141.386 15.7069 141.176 14.7221 141.176 13.5952C141.176 12.4635 141.386 11.474 141.808 10.6264C142.229 9.77888 142.821 9.12074 143.583 8.65199C144.346 8.18324 145.238 7.94886 146.261 7.94886C147.284 7.94886 148.176 8.18324 148.939 8.65199C149.701 9.12074 150.293 9.77888 150.714 10.6264C151.136 11.474 151.346 12.4635 151.346 13.5952C151.346 14.7221 151.136 15.7069 150.714 16.5497C150.293 17.3925 149.701 18.0483 148.939 18.517C148.176 18.9858 147.284 19.2202 146.261 19.2202ZM146.268 17.4375C146.931 17.4375 147.48 17.2623 147.916 16.9119C148.351 16.5616 148.673 16.0952 148.882 15.5128C149.095 14.9304 149.201 14.2888 149.201 13.5881C149.201 12.892 149.095 12.2528 148.882 11.6705C148.673 11.0833 148.351 10.6122 147.916 10.2571C147.48 9.90199 146.931 9.72443 146.268 9.72443C145.6 9.72443 145.047 9.90199 144.606 10.2571C144.171 10.6122 143.846 11.0833 143.633 11.6705C143.425 12.2528 143.321 12.892 143.321 13.5881C143.321 14.2888 143.425 14.9304 143.633 15.5128C143.846 16.0952 144.171 16.5616 144.606 16.9119C145.047 17.2623 145.6 17.4375 146.268 17.4375ZM155.84 4.45455V19H153.717V4.45455H155.84ZM160.821 4.45455V19H158.697V4.45455H160.821ZM168.273 19.2202C167.25 19.2202 166.357 18.9858 165.595 18.517C164.833 18.0483 164.241 17.3925 163.82 16.5497C163.398 15.7069 163.188 14.7221 163.188 13.5952C163.188 12.4635 163.398 11.474 163.82 10.6264C164.241 9.77888 164.833 9.12074 165.595 8.65199C166.357 8.18324 167.25 7.94886 168.273 7.94886C169.295 7.94886 170.188 8.18324 170.95 8.65199C171.713 9.12074 172.304 9.77888 172.726 10.6264C173.147 11.474 173.358 12.4635 173.358 13.5952C173.358 14.7221 173.147 15.7069 172.726 16.5497C172.304 17.3925 171.713 18.0483 170.95 18.517C170.188 18.9858 169.295 19.2202 168.273 19.2202ZM168.28 17.4375C168.943 17.4375 169.492 17.2623 169.928 16.9119C170.363 16.5616 170.685 16.0952 170.893 15.5128C171.107 14.9304 171.213 14.2888 171.213 13.5881C171.213 12.892 171.107 12.2528 170.893 11.6705C170.685 11.0833 170.363 10.6122 169.928 10.2571C169.492 9.90199 168.943 9.72443 168.28 9.72443C167.612 9.72443 167.058 9.90199 166.618 10.2571C166.182 10.6122 165.858 11.0833 165.645 11.6705C165.437 12.2528 165.332 12.892 165.332 13.5881C165.332 14.2888 165.437 14.9304 165.645 15.5128C165.858 16.0952 166.182 16.5616 166.618 16.9119C167.058 17.2623 167.612 17.4375 168.28 17.4375ZM177.761 19L174.551 8.09091H176.746L178.884 16.1023H178.99L181.135 8.09091H183.33L185.46 16.0668H185.567L187.69 8.09091H189.885L186.682 19H184.516L182.3 11.1236H182.136L179.92 19H177.761ZM204.104 14.4759V8.09091H206.234V19H204.146V17.1108H204.033C203.782 17.6932 203.379 18.1785 202.825 18.5668C202.276 18.9503 201.592 19.142 200.773 19.142C200.072 19.142 199.452 18.9882 198.912 18.6804C198.377 18.3679 197.955 17.9062 197.648 17.2955C197.345 16.6847 197.193 15.9295 197.193 15.0298V8.09091H199.317V14.7741C199.317 15.5175 199.523 16.1094 199.935 16.5497C200.347 16.9901 200.882 17.2102 201.54 17.2102C201.938 17.2102 202.333 17.1108 202.726 16.9119C203.124 16.7131 203.453 16.4124 203.713 16.0099C203.978 15.6075 204.108 15.0961 204.104 14.4759ZM209.088 23.0909V8.09091H211.162V9.85938H211.339C211.462 9.6321 211.64 9.36932 211.872 9.07102C212.104 8.77273 212.426 8.51231 212.838 8.28977C213.25 8.0625 213.794 7.94886 214.471 7.94886C215.352 7.94886 216.138 8.1714 216.829 8.61648C217.52 9.06155 218.063 9.70312 218.456 10.5412C218.853 11.3793 219.052 12.3878 219.052 13.5668C219.052 14.7457 218.856 15.7566 218.463 16.5994C218.07 17.4375 217.53 18.0838 216.843 18.5384C216.157 18.9882 215.373 19.2131 214.493 19.2131C213.83 19.2131 213.288 19.1018 212.866 18.8793C212.449 18.6567 212.123 18.3963 211.886 18.098C211.649 17.7997 211.467 17.5346 211.339 17.3026H211.211V23.0909H209.088ZM211.169 13.5455C211.169 14.3125 211.28 14.9848 211.502 15.5625C211.725 16.1402 212.047 16.5923 212.468 16.919C212.89 17.241 213.406 17.402 214.017 17.402C214.651 17.402 215.181 17.2339 215.608 16.8977C216.034 16.5568 216.356 16.0952 216.574 15.5128C216.796 14.9304 216.907 14.2746 216.907 13.5455C216.907 12.8258 216.798 12.1795 216.581 11.6065C216.368 11.0336 216.046 10.5814 215.615 10.25C215.189 9.91856 214.656 9.75284 214.017 9.75284C213.401 9.75284 212.88 9.91146 212.454 10.2287C212.033 10.5459 211.713 10.9886 211.495 11.5568C211.278 12.125 211.169 12.7879 211.169 13.5455Z" fill="#202020"/>
</svg>
