<svg width="24" height="24" viewBox="0 0 24 24" fill="none" xmlns="http://www.w3.org/2000/svg">
<path d="M8.65062 5.82C8.97458 5.31943 9.40637 4.89763 9.9144 4.58549C10.4224 4.27335 10.9938 4.07876 11.5868 4.01597C12.1797 3.95318 12.7792 4.02377 13.3413 4.22259C13.9034 4.4214 14.414 4.7434 14.8356 5.16501C15.2572 5.58663 15.5792 6.09719 15.778 6.65932C15.9768 7.22145 16.0474 7.82093 15.9847 8.41387C15.9219 9.00681 15.7273 9.5782 15.4151 10.0862C15.103 10.5942 14.6812 11.026 14.1806 11.35L8.65062 5.82ZM20.0006 17.17C19.9806 16.07 19.3706 15.06 18.3906 14.55C17.8506 14.27 17.2606 14.01 16.6206 13.79L20.0006 17.17ZM21.1906 21.19L2.81062 2.81L1.39062 4.22L10.2806 13.11C8.47062 13.34 6.89063 13.9 5.61063 14.56C5.12268 14.8113 4.71393 15.1929 4.42972 15.6625C4.14552 16.132 3.99699 16.6711 4.00063 17.22V20H17.1706L19.7806 22.61L21.1906 21.19Z" fill="black"/>
</svg>
