<svg width="27" height="26" viewBox="0 0 27 26" fill="none" xmlns="http://www.w3.org/2000/svg">
<path d="M14.8869 2.33875C9.10839 2.33875 4.40759 6.96935 4.26719 12.7335V13H1.18359L5.85579 18.0622L10.398 13H6.92439V12.7335C7.06349 8.43965 10.5748 5.00505 14.8869 5.00505C19.2887 5.00505 22.8572 8.58525 22.8572 13C22.8572 17.4148 19.2887 20.995 14.8869 20.995C13.1897 20.996 11.537 20.4524 10.1718 19.4441L8.34399 21.3993C10.2095 22.8656 12.5141 23.6614 14.8869 23.6587C20.7564 23.6587 25.5131 18.8877 25.5131 13C25.5131 7.11235 20.7564 2.33875 14.8869 2.33875ZM13.5869 6.50005V13C13.5884 13.3445 13.7252 13.6746 13.9678 13.9191L18.1278 18.0791C18.4957 17.8412 18.8428 17.5734 19.1509 17.2627L16.1869 14.3V6.50005H13.5869Z" fill="#939393"/>
</svg>
