<svg width="22" height="22" viewBox="0 0 22 22" fill="none" xmlns="http://www.w3.org/2000/svg">
<path d="M10.9983 11.3928C11.2588 11.3928 11.5086 11.2894 11.6928 11.1052C11.877 10.921 11.9805 10.6712 11.9805 10.4107C11.9805 10.1502 11.877 9.9004 11.6928 9.71621C11.5086 9.53202 11.2588 9.42855 10.9983 9.42855C10.7378 9.42855 10.488 9.53202 10.3038 9.71621C10.1197 9.9004 10.0162 10.1502 10.0162 10.4107C10.0162 10.6712 10.1197 10.921 10.3038 11.1052C10.488 11.2894 10.7378 11.3928 10.9983 11.3928ZM19.6412 17.0893V7.46426H2.35547V17.0893C2.35547 17.7665 2.6245 18.416 3.10339 18.8949C3.58228 19.3738 4.23179 19.6428 4.90904 19.6428H9.62333V16.8355C9.32345 16.925 9.00201 16.9095 8.71211 16.7916C8.42221 16.6737 8.1812 16.4605 8.02889 16.1871C7.87659 15.9137 7.82209 15.5966 7.87442 15.288C7.92674 14.9795 8.08276 14.698 8.31668 14.4901L10.0845 12.9187C10.3363 12.6948 10.6614 12.5711 10.9983 12.5711C11.3352 12.5711 11.6604 12.6948 11.9121 12.9187L13.68 14.4901C13.9139 14.698 14.0699 14.9795 14.1222 15.288C14.1746 15.5966 14.1201 15.9137 13.9678 16.1871C13.8155 16.4605 13.5744 16.6737 13.2845 16.7916C12.9946 16.9095 12.6732 16.925 12.3733 16.8355V19.6428H17.0876C17.7649 19.6428 18.4144 19.3738 18.8933 18.8949C19.3721 18.416 19.6412 17.7665 19.6412 17.0893ZM12.7662 10.4107C12.7662 10.6428 12.7205 10.8727 12.6316 11.0872C12.5428 11.3017 12.4126 11.4966 12.2484 11.6608C12.0842 11.8249 11.8893 11.9551 11.6749 12.044C11.4604 12.1328 11.2305 12.1785 10.9983 12.1785C10.7662 12.1785 10.5363 12.1328 10.3218 12.044C10.1073 11.9551 9.91242 11.8249 9.74826 11.6608C9.5841 11.4966 9.45388 11.3017 9.36504 11.0872C9.2762 10.8727 9.23047 10.6428 9.23047 10.4107C9.23047 9.94182 9.41673 9.49216 9.74826 9.16062C10.0798 8.82909 10.5295 8.64283 10.9983 8.64283C11.4672 8.64283 11.9169 8.82909 12.2484 9.16062C12.5799 9.49216 12.7662 9.94182 12.7662 10.4107ZM19.6412 4.91069C19.6412 4.23344 19.3721 3.58393 18.8933 3.10504C18.4144 2.62615 17.7649 2.35712 17.0876 2.35712H4.90904C4.23179 2.35712 3.58228 2.62615 3.10339 3.10504C2.6245 3.58393 2.35547 4.23344 2.35547 4.91069V6.28569H19.6412V4.91069ZM12.3749 15.9578C12.4926 16.0544 12.6431 16.1016 12.7948 16.0897C12.9466 16.0777 13.0878 16.0075 13.189 15.8938C13.2901 15.7801 13.3433 15.6316 13.3375 15.4795C13.3316 15.3274 13.2671 15.1834 13.1575 15.0778L11.3896 13.5064C11.2818 13.4106 11.1426 13.3577 10.9983 13.3577C10.8541 13.3577 10.7149 13.4106 10.607 13.5064L8.83918 15.0778C8.72957 15.1834 8.66507 15.3274 8.6592 15.4795C8.65333 15.6316 8.70654 15.7801 8.80769 15.8938C8.90885 16.0075 9.05009 16.0777 9.20184 16.0897C9.35358 16.1016 9.50406 16.0544 9.62175 15.9578L10.409 15.2585V19.8393C10.409 19.9955 10.4711 20.1454 10.5816 20.2559C10.6922 20.3665 10.842 20.4285 10.9983 20.4285C11.1546 20.4285 11.3045 20.3665 11.415 20.2559C11.5255 20.1454 11.5876 19.9955 11.5876 19.8393V15.2585L12.3749 15.9578Z" fill="#939393"/>
</svg>
