<svg width="26" height="26" viewBox="0 0 26 26" fill="none" xmlns="http://www.w3.org/2000/svg">
<g clip-path="url(#clip0_1564_3647)">
<path d="M7 0C6.449 0 6 0.449 6 1V4C6 4.551 6.449 5 7 5C7.551 5 8 4.551 8 4V1C8 0.449 7.551 0 7 0ZM19 0C18.449 0 18 0.449 18 1V4C18 4.551 18.449 5 19 5C19.551 5 20 4.551 20 4V1C20 0.449 19.551 0 19 0ZM3 2C1.344 2 0 3.344 0 5V23C0 24.656 1.344 26 3 26H23C24.656 26 26 24.656 26 23V5C26 3.344 24.656 2 23 2H21V4C21 4.53043 20.7893 5.03914 20.4142 5.41421C20.0391 5.78929 19.5304 6 19 6C18.4696 6 17.9609 5.78929 17.5858 5.41421C17.2107 5.03914 17 4.53043 17 4V2H9V4C9 4.53043 8.78929 5.03914 8.41421 5.41421C8.03914 5.78929 7.53043 6 7 6C6.46957 6 5.96086 5.78929 5.58579 5.41421C5.21071 5.03914 5 4.53043 5 4V2H3ZM2 9H24V23C24 23.551 23.551 24 23 24H3C2.449 24 2 23.551 2 23V9ZM16.906 11.156C16.8299 11.1703 16.7574 11.1998 16.693 11.2427C16.6285 11.2857 16.5734 11.3412 16.531 11.406L11.625 18.656L9.344 16.406C9.2887 16.3504 9.22295 16.3062 9.15053 16.2761C9.0781 16.246 9.00044 16.2305 8.922 16.2305C8.84356 16.2305 8.7659 16.246 8.69347 16.2761C8.62105 16.3062 8.5553 16.3504 8.5 16.406L7.625 17.25C7.51096 17.3671 7.44714 17.5241 7.44714 17.6875C7.44714 17.8509 7.51096 18.0079 7.625 18.125L11.094 21.594C11.289 21.787 11.599 21.937 11.875 21.937C12.151 21.937 12.447 21.761 12.625 21.5L18.531 12.781C18.6222 12.6484 18.657 12.485 18.6278 12.3267C18.5985 12.1684 18.5076 12.0283 18.375 11.937L17.375 11.25C17.2367 11.1592 17.0686 11.1255 16.906 11.156ZM902 1469V1471H928V1469H902ZM906 1474V1476H924V1474H906ZM902 1479V1481H928V1479H902ZM906 1484V1486H924V1484H906ZM902 1489V1491H928V1489H902Z" fill="black"/>
</g>
<defs>
<clipPath id="clip0_1564_3647">
<rect width="26" height="26" fill="white"/>
</clipPath>
</defs>
</svg>
