<svg width="25" height="25" viewBox="0 0 25 25" fill="none" xmlns="http://www.w3.org/2000/svg">
<g clip-path="url(#clip0_1311_3897)">
<path d="M16.5859 11.5C18.2459 11.5 19.5759 10.16 19.5759 8.5C19.5759 6.84 18.2459 5.5 16.5859 5.5C14.9259 5.5 13.5859 6.84 13.5859 8.5C13.5859 10.16 14.9259 11.5 16.5859 11.5ZM8.58594 11.5C10.2459 11.5 11.5759 10.16 11.5759 8.5C11.5759 6.84 10.2459 5.5 8.58594 5.5C6.92594 5.5 5.58594 6.84 5.58594 8.5C5.58594 10.16 6.92594 11.5 8.58594 11.5ZM8.58594 13.5C6.25594 13.5 1.58594 14.67 1.58594 17V18.5C1.58594 19.05 2.03594 19.5 2.58594 19.5H14.5859C15.1359 19.5 15.5859 19.05 15.5859 18.5V17C15.5859 14.67 10.9159 13.5 8.58594 13.5ZM16.5859 13.5C16.2959 13.5 15.9659 13.52 15.6159 13.55C15.6359 13.56 15.6459 13.58 15.6559 13.59C16.7959 14.42 17.5859 15.53 17.5859 17V18.5C17.5859 18.85 17.5159 19.19 17.4059 19.5H22.5859C23.1359 19.5 23.5859 19.05 23.5859 18.5V17C23.5859 14.67 18.9159 13.5 16.5859 13.5Z" fill="#939393"/>
</g>
<defs>
<clipPath id="clip0_1311_3897">
<rect width="24" height="24" fill="white" transform="translate(0.585938 0.5)"/>
</clipPath>
</defs>
</svg>
