<svg width="24" height="23" viewBox="0 0 24 23" fill="none" xmlns="http://www.w3.org/2000/svg">
<path d="M2.50391 8.62502C2.50391 6.8176 2.50391 5.91485 3.06549 5.35327C3.62707 4.79169 4.52982 4.79169 6.33724 4.79169H17.8372C19.6447 4.79169 20.5474 4.79169 21.109 5.35327C21.6706 5.91485 21.6706 6.8176 21.6706 8.62502C21.6706 9.0764 21.6706 9.30256 21.5307 9.44344C21.3898 9.58335 21.1627 9.58335 20.7122 9.58335H3.46224C3.01086 9.58335 2.7847 9.58335 2.64382 9.44344C2.50391 9.30256 2.50391 9.07544 2.50391 8.62502ZM2.50391 17.25C2.50391 19.0574 2.50391 19.9602 3.06549 20.5218C3.62707 21.0834 4.52982 21.0834 6.33724 21.0834H17.8372C19.6447 21.0834 20.5474 21.0834 21.109 20.5218C21.6706 19.9602 21.6706 19.0574 21.6706 17.25V12.4584C21.6706 12.007 21.6706 11.7808 21.5307 11.6399C21.3898 11.5 21.1627 11.5 20.7122 11.5H3.46224C3.01086 11.5 2.7847 11.5 2.64382 11.6399C2.50391 11.7808 2.50391 12.0079 2.50391 12.4584V17.25Z" fill="#939393"/>
<path d="M7.29688 2.875V5.75M16.8802 2.875V5.75" stroke="#939393" stroke-width="2" stroke-linecap="round"/>
</svg>
