<svg width="174" height="114" viewBox="0 0 174 114" fill="none" xmlns="http://www.w3.org/2000/svg">
<path d="M174.01 0H76.0098C79.0098 3.05085 99.5098 20.678 103.51 30H174.01V0Z" fill="url(#paint0_linear_1562_14764)"/>
<path d="M174 114.002H76C79.5098 112 99.0098 101.5 103.5 84.002H174V114.002Z" fill="url(#paint1_linear_1562_14764)"/>
<path d="M125.01 70.5V43H173.01V70.5H125.01Z" fill="url(#paint2_linear_1562_14764)"/>
<path d="M0.230469 0H30.6662L51.5908 16.7646H0.230469V0Z" fill="#DD372D"/>
<path d="M2.71444 2.38498C1.12398 3.91206 0.230469 5.98321 0.230469 8.14282V16.7646L17.1921 16.765V16.2856H42.6344C66.0541 16.2856 85.0384 34.5134 85.0384 56.9998C85.0384 79.4862 66.0541 97.7139 42.6344 97.7139H17.1921V65.9413H0.230469V105.857C0.230469 108.016 1.12398 110.087 2.71444 111.615C4.30489 113.142 6.46202 114 8.71126 114H42.6344C75.4212 114 102 88.4799 102 56.9998C102 25.5196 75.4212 0 42.6344 0H8.71126C6.46202 0 4.30489 0.857904 2.71444 2.38498Z" fill="#DD372D"/>
<path d="M0.230469 97.2346H11.6439V113.999H0.230469V97.2346Z" fill="#DD372D"/>
<defs>
<linearGradient id="paint0_linear_1562_14764" x1="66.0098" y1="-3.50001" x2="178.51" y2="32" gradientUnits="userSpaceOnUse">
<stop offset="0.0260417" stop-color="#EB453B"/>
<stop offset="0.432292" stop-color="#D02A20"/>
<stop offset="0.708333" stop-color="#89160F"/>
<stop offset="1"/>
</linearGradient>
<linearGradient id="paint1_linear_1562_14764" x1="66" y1="117.502" x2="178.5" y2="82.002" gradientUnits="userSpaceOnUse">
<stop offset="0.386924" stop-color="#D63F36"/>
<stop offset="1"/>
</linearGradient>
<linearGradient id="paint2_linear_1562_14764" x1="120.112" y1="39.7917" x2="179.026" y2="49.7251" gradientUnits="userSpaceOnUse">
<stop offset="0.386924" stop-color="#D63F36"/>
<stop offset="1"/>
</linearGradient>
</defs>
</svg>
